PathFileType	4	(X/Y/Z)	D:\Share\Shared_Data\Ergonomics\Sit To Stand Pertubation\S3\Unperturbed.trc
DataRate	CameraRate	NumFrames	NumMarkers	Units	OrigDataRate	OrigDataStartFrame	OrigNumFrames	
100	100	12	18	m	100	1464	191
Frame#	Time	R_Thigh			R_ASIS			R_Pelvis			V_Sacral			L_Pelvis			L_ASIS			Clavical			R_Acromium			L_Acromium			Sternum			Torso			R_Thigh_Med			R_Thigh_Lat			R_Shank_Med			R_Shank_Lat			R_Shank			R_Heel			R_Toe			
		X1	Y1	Z1	X2	Y2	Z2	X3	Y3	Z3	X4	Y4	Z4	X5	Y5	Z5	X6	Y6	Z6	X7	Y7	Z7	X8	Y8	Z8	X9	Y9	Z9	X10	Y10	Z10	X11	Y11	Z11	X12	Y12	Z12	X13	Y13	Z13	X14	Y14	Z14	X15	Y15	Z15	X16	Y16	Z16	X17	Y17	Z17	X18	Y18	Z18	

1464	14.63	0.16646413	0.57900806	0.11113454	-0.0049517283	0.64912451	0.13371124	-0.11392093	0.62713068	0.18641449	-0.21936032	0.62137415	-0.00028351557	-0.10949048	0.64940265	-0.20686819	-0.00056768817	0.65631995	-0.14666748	-0.046175339	1.0343964	-0.0078853106	-0.1003019	1.0934282	0.16450209	-0.083395706	1.0911561	-0.16241261	-0.021083958	0.96144189	0.0002506662	-0.038558113	1.0224485	-0.068774315	0.35259439	0.46581122	0.082240562	0.33080017	0.44521262	0.19858621	0.25974594	0.1080451	0.095658951	0.23628418	0.099547409	0.17365796	0.26593018	0.27208853	0.20064769	0.18008788	0.051889767	0.12150946	0.39823642	0.055559322	0.13679549
1465	14.64	0.1664136	0.57898517	0.11102303	-0.0046100435	0.64900336	0.13363823	-0.11366621	0.62736182	0.18640387	-0.21909827	0.62188757	-0.00031930506	-0.10918047	0.64954083	-0.20692482	-0.00013676432	0.65616125	-0.14740192	-0.043762672	1.0341566	-0.0078575907	-0.097646172	1.0934373	0.164461	-0.080432518	1.0912542	-0.1624126	-0.019149958	0.96104675	0.00019128114	-0.036181046	1.0221853	-0.068755394	0.35250708	0.46580371	0.082126724	0.3307218	0.44522638	0.19847897	0.25983899	0.10787299	0.096119965	0.23626892	0.099544197	0.17365921	0.26586609	0.27210544	0.20059937	0.18007483	0.05187505	0.12151909	0.39827832	0.05557048	0.13699208
1466	14.65	0.16635168	0.57896307	0.11091235	-0.0042385569	0.64887036	0.13357877	-0.11340158	0.62759674	0.18638211	-0.21880791	0.62243677	-0.00038107038	-0.10881731	0.64969458	-0.20699315	0.00030938843	0.65598584	-0.14817575	-0.041169174	1.0338967	-0.0078331914	-0.094799927	1.0934435	0.16442154	-0.077258003	1.0913417	-0.16250999	-0.017067335	0.96062463	0.00012318787	-0.03363435	1.0218948	-0.068753052	0.35241327	0.46579837	0.082027893	0.33063419	0.44524396	0.19838725	0.25991907	0.10772219	0.096521828	0.23625504	0.09954084	0.17366064	0.26580029	0.27212085	0.20055602	0.18006299	0.051863605	0.12152724	0.39830734	0.055582283	0.13713797
1467	14.66	0.1662796	0.57894171	0.11080529	-0.0038274601	0.64872449	0.13353242	-0.11311983	0.62783862	0.18634395	-0.21848489	0.62302527	-0.00047022715	-0.1083968	0.64986475	-0.20707324	0.00074866068	0.65578076	-0.14878006	-0.038387283	1.0336141	-0.0078128448	-0.091758942	1.0934468	0.1643862	-0.073861092	1.0914268	-0.16274199	-0.014829742	0.96017371	4.9741771e-05	-0.030908691	1.0215745	-0.068764526	0.35231607	0.46579404	0.0819468	0.33054059	0.44526404	0.19831219	0.25997391	0.10760999	0.096817085	0.23624078	0.099536201	0.17366228	0.26573593	0.27213489	0.20051909	0.18005186	0.051855709	0.12153467	0.39832339	0.055596333	0.1372356
1468	14.67	0.16619972	0.57891968	0.11070395	-0.0033646877	0.64856488	0.13349954	-0.11281382	0.628091	0.18628377	-0.21812514	0.62365643	-0.00058650076	-0.1079163	0.65005261	-0.20716476	0.0011419718	0.65552307	-0.14903601	-0.035410465	1.033306	-0.0077977214	-0.088519264	1.0934458	0.16435538	-0.070233002	1.0915175	-0.16314247	-0.01243123	0.95969141	-2.5573948e-05	-0.027996521	1.0212217	-0.068786003	0.35221927	0.46578925	0.081885284	0.3304433	0.44528458	0.19825426	0.26000363	0.10753535	0.097009407	0.23622496	0.099529472	0.17366409	0.26567532	0.27214731	0.20049013	0.18004117	0.051850533	0.12154147	0.39832816	0.055613243	0.13729448
1469	14.68	0.16611551	0.5788952	0.11060957	-0.0028380921	0.6483913	0.13348157	-0.11247821	0.62835632	0.1861994	-0.21772478	0.62433307	-0.00072782373	-0.10737516	0.6502597	-0.20726712	0.0014663081	0.65519525	-0.14886534	-0.032232845	1.0329683	-0.0077875671	-0.085075752	1.0934377	0.16432858	-0.066370811	1.0916185	-0.16372865	-0.0098663301	0.95917389	-9.9090733e-05	-0.024891678	1.0208335	-0.068813118	0.35212598	0.46578308	0.08184391	0.33034329	0.44530356	0.1982132	0.26001715	0.107484	0.097138885	0.23620731	0.099520531	0.17366632	0.26561969	0.27215768	0.20047025	0.18003085	0.051846615	0.12154739	0.39832394	0.055632694	0.1373257
1470	14.69	0.16603114	0.57886676	0.1105223	-0.0022384174	0.64820496	0.13348027	-0.11210857	0.62863611	0.18609392	-0.21728091	0.62505707	-0.00089001137	-0.10677479	0.65048737	-0.20737947	0.0017281635	0.65479517	-0.14830421	-0.028848906	1.032598	-0.0077801495	-0.081420746	1.0934185	0.16430583	-0.06228344	1.0917274	-0.1644818	-0.0071298976	0.95861719	-0.00016718714	-0.021588671	1.0204071	-0.068841423	0.35203857	0.46577518	0.081822021	0.33024173	0.44531952	0.19818828	0.2600231	0.10744311	0.097241325	0.23618793	0.099509468	0.1736698	0.2655686	0.27216553	0.20045976	0.18002071	0.051842049	0.1215519	0.39831326	0.055653572	0.13733911
1471	14.7	0.16595131	0.57883295	0.11044138	-0.0015624331	0.6480061	0.13349625	-0.11170008	0.62893073	0.1859738	-0.21679199	0.62582904	-0.0010670995	-0.10611818	0.65073596	-0.20750162	0.0019707298	0.65434106	-0.1474982	-0.025253281	1.0321931	-0.0077702732	-0.077544052	1.0933828	0.16428888	-0.057990627	1.0918307	-0.16533992	-0.0042172098	0.95801678	-0.00022648987	-0.018082674	1.0199399	-0.068866486	0.35195883	0.4657652	0.081818184	0.33014056	0.44533151	0.19817851	0.26002271	0.10741126	0.09732103	0.23616708	0.099496056	0.17367581	0.26552078	0.27216989	0.20045848	0.1800103	0.051833973	0.12155382	0.39829816	0.055674408	0.13734242
1472	14.71	0.16588097	0.57879272	0.11036538	-0.00081550932	0.64779211	0.13352751	-0.11124733	0.62923999	0.18584604	-0.21625684	0.62664911	-0.0012521034	-0.10540889	0.65100513	-0.20763431	0.0022661405	0.6538634	-0.14664943	-0.021440609	1.031752	-0.0077472396	-0.073433876	1.0933251	0.16428065	-0.053509689	1.0919102	-0.16622426	-0.00112403	0.95736786	-0.00027401364	-0.014369762	1.0194291	-0.068883827	0.35188861	0.46575259	0.081830429	0.33004315	0.44533804	0.19818323	0.26001324	0.10739331	0.097365036	0.23614508	0.099479797	0.17368521	0.26547491	0.2721694	0.20046596	0.17999924	0.051818867	0.12155151	0.39828046	0.055694054	0.1373414
1473	14.72	0.16582495	0.57874554	0.11029243	-1.2640287e-05	0.64755695	0.13356906	-0.1107444	0.62956305	0.18571585	-0.21567393	0.62751642	-0.0014377022	-0.10465044	0.65129315	-0.20777864	0.0026779077	0.65338916	-0.14592201	-0.017405792	1.0312738	-0.007695003	-0.069078529	1.0932369	0.16428357	-0.048845055	1.0919452	-0.16706042	0.0021536193	0.95666547	-0.00030723253	-0.010447215	1.0188704	-0.06888987	0.35182986	0.46573633	0.081856514	0.32995404	0.44533722	0.19820183	0.25999414	0.10739079	0.097369057	0.23612199	0.099460236	0.17369812	0.26543045	0.27216324	0.20048166	0.17998715	0.051793716	0.12154339	0.39826166	0.055711857	0.13734001
1474	14.73	0.1657877	0.57869086	0.11022041	0.00082309192	0.64729169	0.13361232	-0.11018505	0.62989862	0.18558597	-0.21504143	0.6284303	-0.0016169792	-0.10384579	0.65159784	-0.20793451	0.0032335446	0.65293195	-0.14539301	-0.013145767	1.0307604	-0.0075970106	-0.064467216	1.0931088	0.16429906	-0.043989441	1.0919116	-0.16777586	0.0056195769	0.95590442	-0.00032407498	-0.0063133755	1.018258	-0.068882614	0.35178482	0.4657149	0.081894325	0.32987741	0.44532712	0.19823367	0.25996851	0.10739915	0.097344879	0.23609766	0.099437393	0.17371408	0.26538782	0.27215109	0.20050479	0.17997411	0.051756424	0.121528	0.39824265	0.055727421	0.13734024
1475	14.74	0.1657731	0.57862854	0.11014717	0.0016666793	0.64698541	0.13364493	-0.10956328	0.63024493	0.18545689	-0.21435751	0.62938922	-0.0017840066	-0.10299618	0.65191754	-0.20809879	0.0039306684	0.6524939	-0.14507004	-0.0086607857	1.0302175	-0.0074396286	-0.059589584	1.0929305	0.16432883	-0.038925686	1.0917878	-0.16831808	0.0092778196	0.95507886	-0.00032310963	-0.001966642	1.0175844	-0.068861153	0.35175565	0.4656868	0.081942001	0.32981662	0.44530673	0.19827759	0.25994312	0.1074082	0.097319443	0.23607217	0.099411865	0.17373239	0.26534808	0.27213318	0.20053444	0.17996049	0.051705601	0.12150405	0.39822421	0.055740593	0.13734273
